<?xml version="1.0" encoding="UTF-8" standalone="no"?>
<!-- Generator: Adobe Illustrator 15.0.0, SVG Export Plug-In . SVG Version: 6.00 Build 0)  -->

<svg
   version="1.1"
   id="svg11300"
   inkscape:export-xdpi="90.000000"
   inkscape:export-ydpi="90.000000"
   inkscape:export-filename="/home/jimmac/gfx/novell/pdes/branches/NLD10/industrial-icons/scalable/unfiled/keyboard-shortcuts.png"
   inkscape:version="1.2 (1:1.2+202205241504+da316b6974)"
   sodipodi:version="0.32"
   sodipodi:docname="shift.svg"
   x="0px"
   y="0px"
   width="37.125px"
   height="24.625px"
   viewBox="3.875 17.125 37.125 24.625"
   enable-background="new 3.875 17.125 37.125 24.625"
   xml:space="preserve"
   xmlns:inkscape="http://www.inkscape.org/namespaces/inkscape"
   xmlns:sodipodi="http://sodipodi.sourceforge.net/DTD/sodipodi-0.dtd"
   xmlns="http://www.w3.org/2000/svg"
   xmlns:svg="http://www.w3.org/2000/svg"><defs
   id="defs52" />
<sodipodi:namedview
   fill="#babdb6"
   stroke="#204a87"
   inkscape:window-width="1848"
   id="base"
   bordercolor="#666666"
   pagecolor="#ffffff"
   inkscape:cy="18.71875"
   borderopacity="0.25490196"
   inkscape:pageopacity="0.0"
   inkscape:pageshadow="2"
   inkscape:zoom="16"
   inkscape:cx="10.40625"
   inkscape:current-layer="svg11300"
   showgrid="false"
   inkscape:grid-bbox="true"
   inkscape:document-units="px"
   inkscape:showpageshadow="false"
   inkscape:window-height="1016"
   inkscape:window-x="72"
   inkscape:window-y="27"
   inkscape:pagecheckerboard="0"
   inkscape:deskcolor="#d1d1d1"
   inkscape:window-maximized="1">
	</sodipodi:namedview>
<g
   id="g1533"
   transform="matrix(1,0,0,1.005412,-2.984515,19.97269)"
   inkscape:r_cy="true"
   inkscape:r_cx="true">
	
		<radialGradient
   id="path1535_1_"
   cx="287.2755"
   cy="-2950.4387"
   r="17.3765"
   gradientTransform="matrix(0.5242 0 0 -0.1099 -133.0658 -306.454)"
   gradientUnits="userSpaceOnUse">
		<stop
   offset="0"
   style="stop-color:#000000"
   id="stop3" />
		<stop
   offset="1"
   style="stop-color:#000000;stop-opacity:0"
   id="stop5" />
	</radialGradient>
	
		<path
   id="path1535"
   sodipodi:cx="24.25"
   sodipodi:cy="39.8125"
   inkscape:r_cy="true"
   sodipodi:rx="17.375"
   inkscape:r_cx="true"
   sodipodi:ry="6.9375"
   sodipodi:type="arc"
   opacity="0.3889"
   fill="url(#path1535_1_)"
   enable-background="new    "
   d="   M26.618,17.942c0,1.05-4.076,1.901-9.106,1.901c-5.03,0-9.107-0.851-9.107-1.901c0-1.049,4.078-1.9,9.107-1.9   C22.542,16.042,26.618,16.893,26.618,17.942z" />
	<path
   id="rect1537"
   inkscape:r_cy="true"
   inkscape:r_cx="true"
   fill="#BABDB6"
   stroke="#888A85"
   stroke-width="0.9973"
   d="   M11.284-1.152h28.028c1.417,0,2.566,1.143,2.566,2.552v15.84c0,1.409-1.149,2.552-2.566,2.552H11.284   c-1.417,0-2.566-1.142-2.566-2.552V1.4C8.717-0.009,9.866-1.152,11.284-1.152z" />
	
		<radialGradient
   id="rect1539_1_"
   cx="52.1642"
   cy="1.0189"
   r="15.0952"
   gradientTransform="matrix(0.9508 0 0 -0.9951 -24.4029 15.4837)"
   gradientUnits="userSpaceOnUse">
		<stop
   offset="0"
   style="stop-color:#F2F4F1"
   id="stop10" />
		<stop
   offset="1"
   style="stop-color:#D3D7CF"
   id="stop12" />
	</radialGradient>
	<linearGradient
   id="rect1539_2_"
   gradientUnits="userSpaceOnUse"
   x1="-254.4203"
   y1="385.8434"
   x2="-254.4203"
   y2="364.3434">
		<stop
   offset="0"
   style="stop-color:#EEEEEC"
   id="stop15" />
		<stop
   offset="1"
   style="stop-color:#FFFFFF"
   id="stop17" />
	</linearGradient>
	
		<path
   id="rect1539"
   inkscape:r_cy="true"
   inkscape:r_cx="true"
   fill="url(#rect1539_1_)"
   stroke="url(#rect1539_2_)"
   stroke-width="0.9973"
   d="   M12.863,1.792h24.658c0.729,0,1.321,0.588,1.321,1.313v10.424c0,0.725-0.592,1.313-1.321,1.313H12.863   c-0.729,0-1.321-0.589-1.321-1.313V3.105C11.543,2.38,12.134,1.792,12.863,1.792z" />
	
		<path
   id="rect1541"
   inkscape:r_cy="true"
   inkscape:r_cx="true"
   opacity="0.4889"
   fill="none"
   stroke="#FFFFFF"
   stroke-width="0.9973"
   enable-background="new    "
   d="   M11.271-0.221h28.101c0.86,0,1.557,0.694,1.557,1.548v15.9c0,0.855-0.696,1.548-1.557,1.548H11.271   c-0.86,0-1.557-0.694-1.557-1.548v-15.9C9.714,0.473,10.411-0.221,11.271-0.221z" />
	
		<path
   id="path1543"
   inkscape:r_cy="true"
   inkscape:r_cx="true"
   sodipodi:nodetypes="ccccc"
   opacity="0.4889"
   fill="#FFFFFF"
   enable-background="new    "
   d="   M10.313,17.271c-0.04,0.676,0.771,1.053,1.127,1.016l1.038-3.062l-0.771-0.585L10.313,17.271z" />
	
		<path
   id="path1545"
   inkscape:r_cy="true"
   inkscape:r_cx="true"
   sodipodi:nodetypes="ccccc"
   opacity="0.4889"
   fill="#FFFFFF"
   enable-background="new    "
   d="   M40.869,17.178c-0.188,0.944-0.887,1.054-1.718,1.051l-0.814-3.081l0.668-0.405L40.869,17.178z" />
	
		<linearGradient
   id="path1547_1_"
   gradientUnits="userSpaceOnUse"
   x1="301.922"
   y1="-298.2473"
   x2="303.0649"
   y2="-299.6898"
   gradientTransform="matrix(0.5242 0 0 -0.527 -119.2748 -156.3932)">
		<stop
   offset="0"
   style="stop-color:#FFFFFF;stop-opacity:0"
   id="stop24" />
		<stop
   offset="0.5"
   style="stop-color:#FFFFFF"
   id="stop26" />
		<stop
   offset="1"
   style="stop-color:#FFFFFF;stop-opacity:0"
   id="stop28" />
	</linearGradient>
	<path
   id="path1547"
   inkscape:r_cy="true"
   inkscape:r_cx="true"
   sodipodi:nodetypes="ccccc"
   fill="url(#path1547_1_)"
   d="   M40.212,1.31c-0.053-0.581-0.379-1.028-1.014-1.081l-0.861,1.144l0.602,0.634L40.212,1.31z" />
	
		<linearGradient
   id="path1549_1_"
   gradientUnits="userSpaceOnUse"
   x1="270.8087"
   y1="-299.6556"
   x2="271.7593"
   y2="-298.5066"
   gradientTransform="matrix(0.5242 0 0 -0.527 -130.9037 -156.3631)">
		<stop
   offset="0"
   style="stop-color:#FFFFFF;stop-opacity:0"
   id="stop32" />
		<stop
   offset="0.5"
   style="stop-color:#FFFFFF"
   id="stop34" />
		<stop
   offset="1"
   style="stop-color:#FFFFFF;stop-opacity:0"
   id="stop36" />
	</linearGradient>
	<path
   id="path1549"
   inkscape:r_cy="true"
   inkscape:r_cx="true"
   sodipodi:nodetypes="ccccc"
   fill="url(#path1549_1_)"
   d="   M10.337,1.274c0.141-0.516,0.545-0.951,1.114-0.983l0.762,1.188l-0.559,0.635L10.337,1.274z" />
</g>

<path
   style="fill:none;stroke:#000000;stroke-width:1;stroke-linejoin:miter;stroke-dasharray:none;stop-color:#000000"
   d="m 19.190728,32.915371 v -3.724877 h 2.195449 l -4.984765,-4.984765 -4.984765,4.984765 h 2.195449 v 3.724877 z"
   id="path275-3"
   sodipodi:nodetypes="cccccccc" /></svg>
